# MagicaVoxel @ ephtracy

# material
mtllib dino.mtl
usemtl palette

# normals
vn -1 0 0
vn 1 0 0
vn 0 0 1
vn 0 0 -1
vn 0 -1 0
vn 0 1 0

# texcoords
vt 0.0332031 0.5
vt 0.0683594 0.5
vt 0.541016 0.5
vt 0.603516 0.5
vt 0.607422 0.5
vt 0.767578 0.5
vt 0.798828 0.5
vt 0.958984 0.5
vt 0.994141 0.5

# verts and faces
v -5.5 3 1
v -5.5 3 -0
v -5.5 4 1
v -5.5 4 -0
f -2/6/1 -3/6/1 -4/6/1
f -1/6/1 -3/6/1 -2/6/1
v -4.5 4 1
v -4.5 4 -0
v -4.5 5 1
v -4.5 5 -0
f -2/6/1 -3/6/1 -4/6/1
f -1/6/1 -3/6/1 -2/6/1
v -3.5 5 1
v -3.5 5 -0
v -3.5 5 -1
v -3.5 6 1
v -3.5 6 -1
f -2/6/1 -4/6/1 -5/6/1
f -2/6/1 -3/6/1 -4/6/1
f -1/6/1 -3/6/1 -2/6/1
v -2.5 0 3
v -2.5 0 -0
v -2.5 1 3
v -2.5 1 2
v -2.5 1 -0
v -2.5 2 -0
v -2.5 2 -1
v -2.5 3 2
v -2.5 3 1
v -2.5 3 -0
v -2.5 3 -1
v -2.5 5 -0
v -2.5 5 -1
v -2.5 6 1
v -2.5 6 -1
v -2.5 7 3
v -2.5 7 2
v -2.5 8 5
v -2.5 8 3
v -2.5 10 5
v -2.5 10 4
v -2.5 10 3
v -2.5 10 -0
v -2.5 10 -1
v -2.5 11 4
v -2.5 11 3
v -2.5 11 -0
f -25/6/1 -26/6/1 -27/6/1
f -24/6/1 -26/6/1 -25/6/1
f -23/6/1 -26/6/1 -24/6/1
f -22/3/1 -23/3/1 -24/3/1
f -20/3/1 -22/3/1 -24/3/1
f -20/3/1 -21/3/1 -22/3/1
f -19/3/1 -21/3/1 -20/3/1
f -18/3/1 -21/3/1 -19/3/1
f -17/3/1 -21/3/1 -18/3/1
f -16/6/1 -17/6/1 -18/6/1
f -15/6/1 -17/6/1 -16/6/1
f -14/6/1 -19/6/1 -20/6/1
f -11/6/1 -14/6/1 -20/6/1
f -11/6/1 -13/6/1 -14/6/1
f -9/6/1 -11/6/1 -12/6/1
f -8/6/1 -9/6/1 -10/6/1
f -7/6/1 -9/6/1 -8/6/1
f -6/6/1 -11/6/1 -9/6/1
f -6/6/1 -9/6/1 -7/6/1
f -5/6/1 -13/6/1 -11/6/1
f -5/6/1 -11/6/1 -6/6/1
f -4/6/1 -13/6/1 -5/6/1
f -3/9/1 -6/9/1 -7/9/1
f -2/6/1 -5/6/1 -6/6/1
f -2/9/1 -6/9/1 -3/9/1
f -1/6/1 -5/6/1 -2/6/1
v -1.5 0 -3
v -1.5 0 -5
v -1.5 1 -2
v -1.5 1 -3
v -1.5 1 -4
v -1.5 1 -5
v -1.5 2 3
v -1.5 2 2
v -1.5 2 -1
v -1.5 2 -2
v -1.5 2 -3
v -1.5 2 -4
v -1.5 3 3
v -1.5 3 2
v -1.5 3 -1
v -1.5 3 -3
v -1.5 6 3
v -1.5 6 2
v -1.5 7 6
v -1.5 7 5
v -1.5 7 4
v -1.5 7 3
v -1.5 7 2
v -1.5 8 6
v -1.5 8 5
v -1.5 8 4
v -1.5 8 3
v -1.5 10 6
v -1.5 10 5
v -1.5 10 4
v -1.5 10 -0
v -1.5 10 -1
v -1.5 11 5
v -1.5 11 4
v -1.5 11 3
v -1.5 11 -0
v -1.5 11 -1
v -1.5 12 3
v -1.5 12 -0
f -36/6/1 -38/6/1 -39/6/1
f -35/6/1 -38/6/1 -36/6/1
f -34/6/1 -38/6/1 -35/6/1
f -30/6/1 -36/6/1 -37/6/1
f -30/6/1 -35/6/1 -36/6/1
f -29/6/1 -35/6/1 -30/6/1
f -28/6/1 -35/6/1 -29/6/1
f -27/3/1 -32/3/1 -33/3/1
f -26/3/1 -32/3/1 -27/3/1
f -25/6/1 -30/6/1 -31/6/1
f -25/6/1 -29/6/1 -30/6/1
f -24/6/1 -29/6/1 -25/6/1
f -23/5/1 -26/5/1 -27/5/1
f -22/5/1 -26/5/1 -23/5/1
f -18/6/1 -22/6/1 -23/6/1
f -17/6/1 -22/6/1 -18/6/1
f -16/8/1 -20/8/1 -21/8/1
f -15/8/1 -20/8/1 -16/8/1
f -14/6/1 -18/6/1 -19/6/1
f -13/6/1 -18/6/1 -14/6/1
f -12/6/1 -15/6/1 -16/6/1
f -11/6/1 -15/6/1 -12/6/1
f -7/6/1 -10/6/1 -11/6/1
f -6/6/1 -10/6/1 -7/6/1
f -4/6/1 -8/6/1 -9/6/1
f -3/6/1 -8/6/1 -4/6/1
f -2/6/1 -4/6/1 -5/6/1
f -1/6/1 -4/6/1 -2/6/1
v -0.5 0 -2
v -0.5 0 -3
v -0.5 0 -5
v -0.5 0 -6
v -0.5 1 -1
v -0.5 1 -2
v -0.5 1 -3
v -0.5 1 -4
v -0.5 1 -5
v -0.5 1 -6
v -0.5 2 -1
v -0.5 2 -2
v -0.5 2 -3
v -0.5 2 -4
v -0.5 2 -5
v -0.5 3 -1
v -0.5 3 -3
v -0.5 3 -4
v -0.5 4 -1
v -0.5 4 -3
v -0.5 5 -1
v -0.5 5 -2
v -0.5 6 -1
v -0.5 6 -2
v -0.5 7 -1
v -0.5 7 -2
v -0.5 8 -1
v -0.5 8 -2
v -0.5 9 -1
v -0.5 9 -2
v -0.5 10 -1
v -0.5 10 -2
f -27/6/1 -31/6/1 -32/6/1
f -26/6/1 -31/6/1 -27/6/1
f -24/7/1 -29/7/1 -30/7/1
f -23/7/1 -29/7/1 -24/7/1
f -22/6/1 -27/6/1 -28/6/1
f -21/6/1 -27/6/1 -22/6/1
f -19/7/1 -24/7/1 -25/7/1
f -18/7/1 -24/7/1 -19/7/1
f -16/7/1 -19/7/1 -20/7/1
f -15/7/1 -19/7/1 -16/7/1
f -14/7/1 -16/7/1 -17/7/1
f -13/7/1 -16/7/1 -14/7/1
f -10/7/1 -11/7/1 -12/7/1
f -9/7/1 -11/7/1 -10/7/1
f -6/7/1 -7/7/1 -8/7/1
f -5/7/1 -7/7/1 -6/7/1
f -2/7/1 -3/7/1 -4/7/1
f -1/7/1 -3/7/1 -2/7/1
v 0.5 0 3
v 0.5 0 -0
v 0.5 1 3
v 0.5 1 2
v 0.5 1 -0
v 0.5 2 2
v 0.5 2 -0
v 0.5 7 6
v 0.5 7 5
v 0.5 8 6
v 0.5 8 5
f -9/6/1 -10/6/1 -11/6/1
f -8/6/1 -10/6/1 -9/6/1
f -7/6/1 -10/6/1 -8/6/1
f -6/3/1 -7/3/1 -8/3/1
f -5/3/1 -7/3/1 -6/3/1
f -2/8/1 -3/8/1 -4/8/1
f -1/8/1 -3/8/1 -2/8/1
v -0.5 0 3
v -0.5 0 -0
v -0.5 1 3
v -0.5 1 2
v -0.5 1 -0
v -0.5 2 2
v -0.5 2 -0
v -0.5 7 6
v -0.5 7 5
v -0.5 8 6
v -0.5 8 5
f -11/6/2 -10/6/2 -9/6/2
f -9/6/2 -10/6/2 -8/6/2
f -8/6/2 -10/6/2 -7/6/2
f -8/3/2 -7/3/2 -6/3/2
f -6/3/2 -7/3/2 -5/3/2
f -4/8/2 -3/8/2 -2/8/2
f -2/8/2 -3/8/2 -1/8/2
v 0.5 0 -2
v 0.5 0 -3
v 0.5 0 -5
v 0.5 0 -6
v 0.5 1 -1
v 0.5 1 -2
v 0.5 1 -3
v 0.5 1 -4
v 0.5 1 -5
v 0.5 1 -6
v 0.5 2 -1
v 0.5 2 -2
v 0.5 2 -3
v 0.5 2 -4
v 0.5 2 -5
v 0.5 3 -1
v 0.5 3 -3
v 0.5 3 -4
v 0.5 4 -1
v 0.5 4 -3
v 0.5 5 -1
v 0.5 5 -2
v 0.5 6 -1
v 0.5 6 -2
v 0.5 7 -1
v 0.5 7 -2
v 0.5 8 -1
v 0.5 8 -2
v 0.5 9 -1
v 0.5 9 -2
v 0.5 10 -1
v 0.5 10 -2
f -32/6/2 -31/6/2 -27/6/2
f -27/6/2 -31/6/2 -26/6/2
f -30/7/2 -29/7/2 -24/7/2
f -24/7/2 -29/7/2 -23/7/2
f -28/6/2 -27/6/2 -22/6/2
f -22/6/2 -27/6/2 -21/6/2
f -25/7/2 -24/7/2 -19/7/2
f -19/7/2 -24/7/2 -18/7/2
f -20/7/2 -19/7/2 -16/7/2
f -16/7/2 -19/7/2 -15/7/2
f -17/7/2 -16/7/2 -14/7/2
f -14/7/2 -16/7/2 -13/7/2
f -12/7/2 -11/7/2 -10/7/2
f -10/7/2 -11/7/2 -9/7/2
f -8/7/2 -7/7/2 -6/7/2
f -6/7/2 -7/7/2 -5/7/2
f -4/7/2 -3/7/2 -2/7/2
f -2/7/2 -3/7/2 -1/7/2
v 1.5 0 -3
v 1.5 0 -5
v 1.5 1 -2
v 1.5 1 -3
v 1.5 1 -4
v 1.5 1 -5
v 1.5 2 3
v 1.5 2 2
v 1.5 2 -1
v 1.5 2 -2
v 1.5 2 -3
v 1.5 2 -4
v 1.5 3 3
v 1.5 3 2
v 1.5 3 -1
v 1.5 3 -3
v 1.5 6 3
v 1.5 6 2
v 1.5 7 6
v 1.5 7 5
v 1.5 7 4
v 1.5 7 3
v 1.5 7 2
v 1.5 8 6
v 1.5 8 5
v 1.5 8 4
v 1.5 8 3
v 1.5 10 6
v 1.5 10 5
v 1.5 10 4
v 1.5 10 -0
v 1.5 10 -1
v 1.5 11 5
v 1.5 11 4
v 1.5 11 3
v 1.5 11 -0
v 1.5 11 -1
v 1.5 12 3
v 1.5 12 -0
f -39/6/2 -38/6/2 -36/6/2
f -36/6/2 -38/6/2 -35/6/2
f -35/6/2 -38/6/2 -34/6/2
f -37/6/2 -36/6/2 -30/6/2
f -36/6/2 -35/6/2 -30/6/2
f -30/6/2 -35/6/2 -29/6/2
f -29/6/2 -35/6/2 -28/6/2
f -33/3/2 -32/3/2 -27/3/2
f -27/3/2 -32/3/2 -26/3/2
f -31/6/2 -30/6/2 -25/6/2
f -30/6/2 -29/6/2 -25/6/2
f -25/6/2 -29/6/2 -24/6/2
f -27/5/2 -26/5/2 -23/5/2
f -23/5/2 -26/5/2 -22/5/2
f -23/6/2 -22/6/2 -18/6/2
f -18/6/2 -22/6/2 -17/6/2
f -21/8/2 -20/8/2 -16/8/2
f -16/8/2 -20/8/2 -15/8/2
f -19/6/2 -18/6/2 -14/6/2
f -14/6/2 -18/6/2 -13/6/2
f -16/6/2 -15/6/2 -12/6/2
f -12/6/2 -15/6/2 -11/6/2
f -11/6/2 -10/6/2 -7/6/2
f -7/6/2 -10/6/2 -6/6/2
f -9/6/2 -8/6/2 -4/6/2
f -4/6/2 -8/6/2 -3/6/2
f -5/6/2 -4/6/2 -2/6/2
f -2/6/2 -4/6/2 -1/6/2
v 2.5 0 3
v 2.5 0 -0
v 2.5 1 3
v 2.5 1 2
v 2.5 1 -0
v 2.5 2 -0
v 2.5 2 -1
v 2.5 3 2
v 2.5 3 1
v 2.5 3 -0
v 2.5 3 -1
v 2.5 5 -0
v 2.5 5 -1
v 2.5 6 1
v 2.5 6 -1
v 2.5 7 3
v 2.5 7 2
v 2.5 8 5
v 2.5 8 3
v 2.5 10 5
v 2.5 10 4
v 2.5 10 3
v 2.5 10 -0
v 2.5 10 -1
v 2.5 11 4
v 2.5 11 3
v 2.5 11 -0
f -27/6/2 -26/6/2 -25/6/2
f -25/6/2 -26/6/2 -24/6/2
f -24/6/2 -26/6/2 -23/6/2
f -24/3/2 -23/3/2 -22/3/2
f -24/3/2 -22/3/2 -20/3/2
f -22/3/2 -21/3/2 -20/3/2
f -20/3/2 -21/3/2 -19/3/2
f -19/3/2 -21/3/2 -18/3/2
f -18/3/2 -21/3/2 -17/3/2
f -18/6/2 -17/6/2 -16/6/2
f -16/6/2 -17/6/2 -15/6/2
f -20/6/2 -19/6/2 -14/6/2
f -20/6/2 -14/6/2 -11/6/2
f -14/6/2 -13/6/2 -11/6/2
f -12/6/2 -11/6/2 -9/6/2
f -10/6/2 -9/6/2 -8/6/2
f -8/6/2 -9/6/2 -7/6/2
f -9/6/2 -11/6/2 -6/6/2
f -7/6/2 -9/6/2 -6/6/2
f -11/6/2 -13/6/2 -5/6/2
f -6/6/2 -11/6/2 -5/6/2
f -5/6/2 -13/6/2 -4/6/2
f -7/9/2 -6/9/2 -3/9/2
f -6/6/2 -5/6/2 -2/6/2
f -3/9/2 -6/9/2 -2/9/2
f -2/6/2 -5/6/2 -1/6/2
v 3.5 5 1
v 3.5 5 -0
v 3.5 5 -1
v 3.5 6 1
v 3.5 6 -1
f -5/6/2 -4/6/2 -2/6/2
f -4/6/2 -3/6/2 -2/6/2
f -2/6/2 -3/6/2 -1/6/2
v 4.5 4 1
v 4.5 4 -0
v 4.5 5 1
v 4.5 5 -0
f -4/6/2 -3/6/2 -2/6/2
f -2/6/2 -3/6/2 -1/6/2
v 5.5 3 1
v 5.5 3 -0
v 5.5 4 1
v 5.5 4 -0
f -4/6/2 -3/6/2 -2/6/2
f -2/6/2 -3/6/2 -1/6/2
v -1.5 7 6
v -1.5 8 6
v -1.5 10 6
v -0.5 7 6
v -0.5 8 6
v 0.5 7 6
v 0.5 8 6
v 1.5 7 6
v 1.5 8 6
v 1.5 10 6
f -7/8/3 -9/8/3 -10/8/3
f -6/6/3 -8/6/3 -9/6/3
f -6/8/3 -9/8/3 -7/8/3
f -4/6/3 -8/6/3 -6/6/3
f -3/8/3 -4/8/3 -5/8/3
f -2/6/3 -8/6/3 -4/6/3
f -2/8/3 -4/8/3 -3/8/3
f -1/6/3 -8/6/3 -2/6/3
v -2.5 8 5
v -2.5 10 5
v -1.5 8 5
v -1.5 10 5
v -1.5 11 5
v 1.5 8 5
v 1.5 10 5
v 1.5 11 5
v 2.5 8 5
v 2.5 10 5
f -8/6/3 -9/6/3 -10/6/3
f -7/6/3 -9/6/3 -8/6/3
f -4/6/3 -6/6/3 -7/6/3
f -3/6/3 -6/6/3 -4/6/3
f -2/6/3 -4/6/3 -5/6/3
f -1/6/3 -4/6/3 -2/6/3
v -2.5 10 4
v -2.5 11 4
v -1.5 7 4
v -1.5 8 4
v -1.5 10 4
v -1.5 11 4
v 1.5 7 4
v 1.5 8 4
v 1.5 10 4
v 1.5 11 4
v 2.5 10 4
v 2.5 11 4
f -8/9/3 -11/9/3 -12/9/3
f -7/9/3 -11/9/3 -8/9/3
f -6/6/3 -9/6/3 -10/6/3
f -5/6/3 -9/6/3 -6/6/3
f -2/9/3 -3/9/3 -4/9/3
f -1/9/3 -3/9/3 -2/9/3
v -2.5 0 3
v -2.5 1 3
v -2.5 7 3
v -2.5 8 3
v -1.5 2 3
v -1.5 3 3
v -1.5 6 3
v -1.5 7 3
v -1.5 8 3
v -1.5 11 3
v -1.5 12 3
v -0.5 0 3
v -0.5 1 3
v -0.5 3 3
v -0.5 6 3
v -0.5 7 3
v 0.5 0 3
v 0.5 1 3
v 0.5 3 3
v 0.5 6 3
v 0.5 7 3
v 1.5 2 3
v 1.5 3 3
v 1.5 6 3
v 1.5 7 3
v 1.5 8 3
v 1.5 11 3
v 1.5 12 3
v 2.5 0 3
v 2.5 1 3
v 2.5 7 3
v 2.5 8 3
f -25/6/3 -29/6/3 -30/6/3
f -24/6/3 -29/6/3 -25/6/3
f -21/6/3 -31/6/3 -32/6/3
f -20/6/3 -31/6/3 -21/6/3
f -19/5/3 -26/5/3 -27/5/3
f -19/3/3 -27/3/3 -28/3/3
f -18/6/3 -25/6/3 -26/6/3
f -18/5/3 -26/5/3 -19/5/3
f -17/6/3 -25/6/3 -18/6/3
f -14/3/3 -19/3/3 -28/3/3
f -14/6/3 -18/6/3 -19/6/3
f -13/5/3 -17/5/3 -18/5/3
f -13/6/3 -18/6/3 -14/6/3
f -12/5/3 -17/5/3 -13/5/3
f -11/3/3 -14/3/3 -28/3/3
f -10/5/3 -13/5/3 -14/5/3
f -10/3/3 -14/3/3 -11/3/3
f -9/6/3 -12/6/3 -13/6/3
f -9/5/3 -13/5/3 -10/5/3
f -8/6/3 -12/6/3 -9/6/3
f -6/6/3 -22/6/3 -23/6/3
f -5/6/3 -22/6/3 -6/6/3
f -4/6/3 -15/6/3 -16/6/3
f -3/6/3 -15/6/3 -4/6/3
f -2/6/3 -7/6/3 -8/6/3
f -1/6/3 -7/6/3 -2/6/3
v -2.5 1 2
v -2.5 3 2
v -2.5 7 2
v -1.5 2 2
v -1.5 3 2
v -1.5 6 2
v -1.5 7 2
v -0.5 1 2
v -0.5 2 2
v 0.5 1 2
v 0.5 2 2
v 1.5 2 2
v 1.5 3 2
v 1.5 6 2
v 1.5 7 2
v 2.5 1 2
v 2.5 3 2
v 2.5 7 2
f -15/3/3 -17/3/3 -18/3/3
f -14/6/3 -16/6/3 -17/6/3
f -14/3/3 -17/3/3 -15/3/3
f -13/6/3 -16/6/3 -14/6/3
f -12/6/3 -16/6/3 -13/6/3
f -11/3/3 -15/3/3 -18/3/3
f -10/3/3 -15/3/3 -11/3/3
f -7/3/3 -8/3/3 -9/3/3
f -3/3/3 -7/3/3 -9/3/3
f -3/3/3 -6/3/3 -7/3/3
f -2/6/3 -4/6/3 -5/6/3
f -2/3/3 -6/3/3 -3/3/3
f -2/6/3 -5/6/3 -6/6/3
f -1/6/3 -4/6/3 -2/6/3
v -5.5 3 1
v -5.5 4 1
v -4.5 4 1
v -4.5 5 1
v -3.5 5 1
v -3.5 6 1
v -2.5 3 1
v -2.5 6 1
v 2.5 3 1
v 2.5 6 1
v 3.5 5 1
v 3.5 6 1
v 4.5 4 1
v 4.5 5 1
v 5.5 3 1
v 5.5 4 1
f -14/6/3 -15/6/3 -16/6/3
f -12/6/3 -13/6/3 -14/6/3
f -10/6/3 -14/6/3 -16/6/3
f -10/6/3 -11/6/3 -12/6/3
f -10/6/3 -12/6/3 -14/6/3
f -9/6/3 -11/6/3 -10/6/3
f -6/6/3 -7/6/3 -8/6/3
f -5/6/3 -7/6/3 -6/6/3
f -4/6/3 -6/6/3 -8/6/3
f -3/6/3 -6/6/3 -4/6/3
f -2/6/3 -4/6/3 -8/6/3
f -1/6/3 -4/6/3 -2/6/3
v -0.5 1 -1
v -0.5 2 -1
v 0.5 1 -1
v 0.5 2 -1
f -2/6/3 -3/6/3 -4/6/3
f -1/6/3 -3/6/3 -2/6/3
v -1.5 1 -2
v -1.5 2 -2
v -0.5 0 -2
v -0.5 1 -2
v -0.5 2 -2
v 0.5 0 -2
v 0.5 1 -2
v 0.5 2 -2
v 1.5 1 -2
v 1.5 2 -2
f -7/6/3 -9/6/3 -10/6/3
f -6/6/3 -9/6/3 -7/6/3
f -5/6/3 -7/6/3 -8/6/3
f -4/6/3 -7/6/3 -5/6/3
f -2/6/3 -3/6/3 -4/6/3
f -1/6/3 -3/6/3 -2/6/3
v -1.5 0 -3
v -1.5 1 -3
v -0.5 0 -3
v -0.5 1 -3
v 0.5 0 -3
v 0.5 1 -3
v 1.5 0 -3
v 1.5 1 -3
f -6/6/3 -7/6/3 -8/6/3
f -5/6/3 -7/6/3 -6/6/3
f -2/6/3 -3/6/3 -4/6/3
f -1/6/3 -3/6/3 -2/6/3
v -1.5 7 5
v -1.5 8 5
v -0.5 7 5
v -0.5 8 5
v 0.5 7 5
v 0.5 8 5
v 1.5 7 5
v 1.5 8 5
f -8/8/4 -7/8/4 -6/8/4
f -6/8/4 -7/8/4 -5/8/4
f -4/8/4 -3/8/4 -2/8/4
f -2/8/4 -3/8/4 -1/8/4
v -5.5 3 -0
v -5.5 4 -0
v -4.5 4 -0
v -4.5 5 -0
v -3.5 5 -0
v -2.5 0 -0
v -2.5 1 -0
v -2.5 2 -0
v -2.5 3 -0
v -2.5 5 -0
v -2.5 10 -0
v -2.5 11 -0
v -1.5 10 -0
v -1.5 11 -0
v -1.5 12 -0
v -0.5 0 -0
v -0.5 1 -0
v -0.5 2 -0
v -0.5 11 -0
v -0.5 12 -0
v 0.5 0 -0
v 0.5 1 -0
v 0.5 2 -0
v 0.5 11 -0
v 0.5 12 -0
v 1.5 10 -0
v 1.5 11 -0
v 1.5 12 -0
v 2.5 0 -0
v 2.5 1 -0
v 2.5 2 -0
v 2.5 3 -0
v 2.5 5 -0
v 2.5 10 -0
v 2.5 11 -0
v 3.5 5 -0
v 4.5 4 -0
v 4.5 5 -0
v 5.5 3 -0
v 5.5 4 -0
f -40/6/4 -39/6/4 -38/6/4
f -38/6/4 -37/6/4 -36/6/4
f -40/6/4 -38/6/4 -32/6/4
f -38/6/4 -36/6/4 -32/6/4
f -32/6/4 -36/6/4 -31/6/4
f -30/6/4 -29/6/4 -28/6/4
f -28/6/4 -29/6/4 -27/6/4
f -35/6/4 -34/6/4 -25/6/4
f -34/3/4 -33/3/4 -24/3/4
f -25/6/4 -34/6/4 -24/6/4
f -24/3/4 -33/3/4 -23/3/4
f -27/6/4 -26/6/4 -22/6/4
f -22/6/4 -26/6/4 -21/6/4
f -22/7/4 -21/7/4 -17/7/4
f -17/7/4 -21/7/4 -16/7/4
f -17/6/4 -16/6/4 -14/6/4
f -14/6/4 -16/6/4 -13/6/4
f -20/6/4 -19/6/4 -12/6/4
f -19/3/4 -18/3/4 -11/3/4
f -12/6/4 -19/6/4 -11/6/4
f -11/3/4 -18/3/4 -10/3/4
f -15/6/4 -14/6/4 -7/6/4
f -7/6/4 -14/6/4 -6/6/4
f -9/6/4 -8/6/4 -5/6/4
f -9/6/4 -5/6/4 -4/6/4
f -4/6/4 -5/6/4 -3/6/4
f -9/6/4 -4/6/4 -2/6/4
f -2/6/4 -4/6/4 -1/6/4
v -3.5 5 -1
v -3.5 6 -1
v -2.5 2 -1
v -2.5 3 -1
v -2.5 5 -1
v -2.5 6 -1
v -2.5 10 -1
v -1.5 2 -1
v -1.5 3 -1
v -1.5 6 -1
v -1.5 10 -1
v -1.5 11 -1
v -0.5 3 -1
v -0.5 4 -1
v -0.5 5 -1
v -0.5 6 -1
v -0.5 7 -1
v -0.5 8 -1
v -0.5 9 -1
v -0.5 10 -1
v -0.5 11 -1
v 0.5 3 -1
v 0.5 4 -1
v 0.5 5 -1
v 0.5 6 -1
v 0.5 7 -1
v 0.5 8 -1
v 0.5 9 -1
v 0.5 10 -1
v 0.5 11 -1
v 1.5 2 -1
v 1.5 3 -1
v 1.5 6 -1
v 1.5 10 -1
v 1.5 11 -1
v 2.5 2 -1
v 2.5 3 -1
v 2.5 5 -1
v 2.5 6 -1
v 2.5 10 -1
v 3.5 5 -1
v 3.5 6 -1
f -42/6/4 -41/6/4 -38/6/4
f -38/6/4 -41/6/4 -37/6/4
f -40/3/4 -39/3/4 -35/3/4
f -37/6/4 -36/6/4 -34/6/4
f -35/3/4 -39/3/4 -34/3/4
f -39/6/4 -38/6/4 -34/6/4
f -38/6/4 -37/6/4 -34/6/4
f -34/6/4 -36/6/4 -33/6/4
f -33/6/4 -36/6/4 -32/6/4
f -34/4/4 -33/4/4 -30/4/4
f -30/4/4 -33/4/4 -29/4/4
f -29/4/4 -33/4/4 -28/4/4
f -32/6/4 -31/6/4 -27/6/4
f -28/4/4 -33/4/4 -27/4/4
f -33/6/4 -32/6/4 -27/6/4
f -27/6/4 -31/6/4 -26/6/4
f -26/6/4 -31/6/4 -25/6/4
f -25/6/4 -31/6/4 -24/6/4
f -24/6/4 -31/6/4 -23/6/4
f -23/6/4 -31/6/4 -22/6/4
f -29/7/4 -28/7/4 -20/7/4
f -20/7/4 -28/7/4 -19/7/4
f -27/7/4 -26/7/4 -18/7/4
f -18/7/4 -26/7/4 -17/7/4
f -25/7/4 -24/7/4 -16/7/4
f -16/7/4 -24/7/4 -15/7/4
f -23/7/4 -22/7/4 -14/7/4
f -14/7/4 -22/7/4 -13/7/4
f -20/4/4 -19/4/4 -11/4/4
f -21/4/4 -20/4/4 -11/4/4
f -19/4/4 -18/4/4 -11/4/4
f -18/6/4 -17/6/4 -10/6/4
f -16/6/4 -15/6/4 -10/6/4
f -11/4/4 -18/4/4 -10/4/4
f -14/6/4 -13/6/4 -10/6/4
f -15/6/4 -14/6/4 -10/6/4
f -17/6/4 -16/6/4 -10/6/4
f -10/6/4 -13/6/4 -9/6/4
f -9/6/4 -13/6/4 -8/6/4
f -12/3/4 -11/3/4 -7/3/4
f -11/6/4 -10/6/4 -6/6/4
f -7/3/4 -11/3/4 -6/3/4
f -10/6/4 -9/6/4 -6/6/4
f -6/6/4 -9/6/4 -5/6/4
f -5/6/4 -9/6/4 -4/6/4
f -4/6/4 -9/6/4 -3/6/4
f -5/6/4 -4/6/4 -2/6/4
f -2/6/4 -4/6/4 -1/6/4
v -0.5 5 -2
v -0.5 6 -2
v -0.5 7 -2
v -0.5 8 -2
v -0.5 9 -2
v -0.5 10 -2
v 0.5 5 -2
v 0.5 6 -2
v 0.5 7 -2
v 0.5 8 -2
v 0.5 9 -2
v 0.5 10 -2
f -12/7/4 -11/7/4 -6/7/4
f -6/7/4 -11/7/4 -5/7/4
f -10/7/4 -9/7/4 -4/7/4
f -4/7/4 -9/7/4 -3/7/4
f -8/7/4 -7/7/4 -2/7/4
f -2/7/4 -7/7/4 -1/7/4
v -1.5 2 -3
v -1.5 3 -3
v -0.5 2 -3
v -0.5 3 -3
v -0.5 4 -3
v 0.5 2 -3
v 0.5 3 -3
v 0.5 4 -3
v 1.5 2 -3
v 1.5 3 -3
f -10/6/4 -9/6/4 -8/6/4
f -8/6/4 -9/6/4 -7/6/4
f -7/7/4 -6/7/4 -4/7/4
f -4/7/4 -6/7/4 -3/7/4
f -5/6/4 -4/6/4 -2/6/4
f -2/6/4 -4/6/4 -1/6/4
v -1.5 1 -4
v -1.5 2 -4
v -0.5 1 -4
v -0.5 2 -4
v -0.5 3 -4
v 0.5 1 -4
v 0.5 2 -4
v 0.5 3 -4
v 1.5 1 -4
v 1.5 2 -4
f -10/6/4 -9/6/4 -8/6/4
f -8/6/4 -9/6/4 -7/6/4
f -7/7/4 -6/7/4 -4/7/4
f -4/7/4 -6/7/4 -3/7/4
f -5/6/4 -4/6/4 -2/6/4
f -2/6/4 -4/6/4 -1/6/4
v -1.5 0 -5
v -1.5 1 -5
v -0.5 0 -5
v -0.5 1 -5
v -0.5 2 -5
v 0.5 0 -5
v 0.5 1 -5
v 0.5 2 -5
v 1.5 0 -5
v 1.5 1 -5
f -10/6/4 -9/6/4 -8/6/4
f -8/6/4 -9/6/4 -7/6/4
f -7/7/4 -6/7/4 -4/7/4
f -4/7/4 -6/7/4 -3/7/4
f -5/6/4 -4/6/4 -2/6/4
f -2/6/4 -4/6/4 -1/6/4
v -0.5 0 -6
v -0.5 1 -6
v 0.5 0 -6
v 0.5 1 -6
f -4/7/4 -3/7/4 -2/7/4
f -2/7/4 -3/7/4 -1/7/4
v -2.5 0 3
v -0.5 0 3
v 0.5 0 3
v 2.5 0 3
v -2.5 0 -0
v -0.5 0 -0
v 0.5 0 -0
v 2.5 0 -0
v -0.5 0 -2
v 0.5 0 -2
v -1.5 0 -3
v -0.5 0 -3
v 0.5 0 -3
v 1.5 0 -3
v -1.5 0 -5
v -0.5 0 -5
v 0.5 0 -5
v 1.5 0 -5
v -0.5 0 -6
v 0.5 0 -6
f -16/6/5 -19/6/5 -20/6/5
f -15/6/5 -19/6/5 -16/6/5
f -14/6/5 -17/6/5 -18/6/5
f -13/6/5 -17/6/5 -14/6/5
f -9/6/5 -11/6/5 -12/6/5
f -8/6/5 -11/6/5 -9/6/5
f -6/6/5 -9/6/5 -10/6/5
f -6/6/5 -7/6/5 -8/6/5
f -6/6/5 -8/6/5 -9/6/5
f -5/6/5 -7/6/5 -6/6/5
f -4/6/5 -7/6/5 -5/6/5
f -3/6/5 -7/6/5 -4/6/5
f -2/7/5 -4/7/5 -5/7/5
f -1/7/5 -4/7/5 -2/7/5
v -0.5 1 -1
v 0.5 1 -1
v -1.5 1 -2
v -0.5 1 -2
v 0.5 1 -2
v 1.5 1 -2
v -1.5 1 -3
v -0.5 1 -3
v 0.5 1 -3
v 1.5 1 -3
f -7/6/5 -9/6/5 -10/6/5
f -6/6/5 -9/6/5 -7/6/5
f -4/6/5 -7/6/5 -8/6/5
f -3/6/5 -7/6/5 -4/6/5
f -2/6/5 -5/6/5 -6/6/5
f -1/6/5 -5/6/5 -2/6/5
v -1.5 2 3
v 1.5 2 3
v -1.5 2 2
v -0.5 2 2
v 0.5 2 2
v 1.5 2 2
v -2.5 2 -0
v -0.5 2 -0
v 0.5 2 -0
v 2.5 2 -0
v -2.5 2 -1
v -1.5 2 -1
v -0.5 2 -1
v 0.5 2 -1
v 1.5 2 -1
v 2.5 2 -1
v -1.5 2 -2
v -0.5 2 -2
v 0.5 2 -2
v 1.5 2 -2
f -18/3/5 -19/3/5 -20/3/5
f -17/3/5 -19/3/5 -18/3/5
f -16/3/5 -19/3/5 -17/3/5
f -15/3/5 -19/3/5 -16/3/5
f -13/3/5 -16/3/5 -17/3/5
f -12/3/5 -16/3/5 -13/3/5
f -10/3/5 -12/3/5 -13/3/5
f -10/3/5 -11/3/5 -12/3/5
f -10/3/5 -13/3/5 -14/3/5
f -9/3/5 -11/3/5 -10/3/5
f -8/3/5 -11/3/5 -9/3/5
f -7/3/5 -11/3/5 -8/3/5
f -6/3/5 -11/3/5 -7/3/5
f -5/3/5 -11/3/5 -6/3/5
f -4/6/5 -8/6/5 -9/6/5
f -3/6/5 -8/6/5 -4/6/5
f -2/6/5 -6/6/5 -7/6/5
f -1/6/5 -6/6/5 -2/6/5
v -5.5 3 1
v -2.5 3 1
v 2.5 3 1
v 5.5 3 1
v -5.5 3 -0
v -2.5 3 -0
v 2.5 3 -0
v 5.5 3 -0
f -4/6/5 -7/6/5 -8/6/5
f -3/6/5 -7/6/5 -4/6/5
f -2/6/5 -5/6/5 -6/6/5
f -1/6/5 -5/6/5 -2/6/5
v -3.5 5 -0
v -2.5 5 -0
v 2.5 5 -0
v 3.5 5 -0
v -3.5 5 -1
v -2.5 5 -1
v -0.5 5 -1
v 0.5 5 -1
v 2.5 5 -1
v 3.5 5 -1
v -0.5 5 -2
v 0.5 5 -2
f -8/6/5 -11/6/5 -12/6/5
f -7/6/5 -11/6/5 -8/6/5
f -4/6/5 -9/6/5 -10/6/5
f -3/6/5 -9/6/5 -4/6/5
f -2/7/5 -5/7/5 -6/7/5
f -1/7/5 -5/7/5 -2/7/5
v -1.5 7 6
v -0.5 7 6
v 0.5 7 6
v 1.5 7 6
v -1.5 7 5
v -0.5 7 5
v 0.5 7 5
v 1.5 7 5
v -1.5 7 4
v 1.5 7 4
v -2.5 7 3
v -1.5 7 3
v -0.5 7 3
v 0.5 7 3
v 1.5 7 3
v 2.5 7 3
v -2.5 7 2
v -1.5 7 2
v 1.5 7 2
v 2.5 7 2
v -0.5 7 -1
v 0.5 7 -1
v -0.5 7 -2
v 0.5 7 -2
f -20/8/5 -23/8/5 -24/8/5
f -19/8/5 -23/8/5 -20/8/5
f -18/8/5 -21/8/5 -22/8/5
f -17/8/5 -21/8/5 -18/8/5
f -13/6/5 -15/6/5 -16/6/5
f -12/6/5 -15/6/5 -13/6/5
f -11/6/5 -15/6/5 -12/6/5
f -10/6/5 -15/6/5 -11/6/5
f -8/6/5 -13/6/5 -14/6/5
f -7/6/5 -13/6/5 -8/6/5
f -6/6/5 -9/6/5 -10/6/5
f -5/6/5 -9/6/5 -6/6/5
f -2/7/5 -3/7/5 -4/7/5
f -1/7/5 -3/7/5 -2/7/5
v -0.5 8 6
v 0.5 8 6
v -2.5 8 5
v -1.5 8 5
v -0.5 8 5
v 0.5 8 5
v 1.5 8 5
v 2.5 8 5
v -1.5 8 4
v 1.5 8 4
v -2.5 8 3
v -1.5 8 3
v 1.5 8 3
v 2.5 8 3
f -10/6/5 -13/6/5 -14/6/5
f -9/6/5 -13/6/5 -10/6/5
f -6/6/5 -11/6/5 -12/6/5
f -6/6/5 -7/6/5 -8/6/5
f -6/6/5 -8/6/5 -9/6/5
f -6/6/5 -9/6/5 -10/6/5
f -6/6/5 -10/6/5 -11/6/5
f -5/6/5 -7/6/5 -6/6/5
f -4/6/5 -6/6/5 -12/6/5
f -3/6/5 -6/6/5 -4/6/5
f -2/6/5 -7/6/5 -5/6/5
f -1/6/5 -7/6/5 -2/6/5
v -0.5 9 -1
v 0.5 9 -1
v -0.5 9 -2
v 0.5 9 -2
f -2/7/5 -3/7/5 -4/7/5
f -1/7/5 -3/7/5 -2/7/5
v -2.5 1 3
v -0.5 1 3
v 0.5 1 3
v 2.5 1 3
v -2.5 1 2
v -0.5 1 2
v 0.5 1 2
v 2.5 1 2
v -1.5 1 -4
v -0.5 1 -4
v 0.5 1 -4
v 1.5 1 -4
v -1.5 1 -5
v -0.5 1 -5
v 0.5 1 -5
v 1.5 1 -5
v -0.5 1 -6
v 0.5 1 -6
f -18/6/6 -17/6/6 -14/6/6
f -14/6/6 -17/6/6 -13/6/6
f -16/6/6 -15/6/6 -12/6/6
f -12/6/6 -15/6/6 -11/6/6
f -10/6/6 -9/6/6 -6/6/6
f -6/6/6 -9/6/6 -5/6/6
f -8/6/6 -7/6/6 -4/6/6
f -4/6/6 -7/6/6 -3/6/6
f -5/7/6 -4/7/6 -2/7/6
f -2/7/6 -4/7/6 -1/7/6
v -1.5 2 -3
v -0.5 2 -3
v 0.5 2 -3
v 1.5 2 -3
v -1.5 2 -4
v -0.5 2 -4
v 0.5 2 -4
v 1.5 2 -4
v -0.5 2 -5
v 0.5 2 -5
f -10/6/6 -9/6/6 -6/6/6
f -6/6/6 -9/6/6 -5/6/6
f -8/6/6 -7/6/6 -4/6/6
f -4/6/6 -7/6/6 -3/6/6
f -5/7/6 -4/7/6 -2/7/6
f -2/7/6 -4/7/6 -1/7/6
v -1.5 3 -1
v -0.5 3 -1
v 0.5 3 -1
v 1.5 3 -1
v -1.5 3 -3
v -0.5 3 -3
v 0.5 3 -3
v 1.5 3 -3
v -0.5 3 -4
v 0.5 3 -4
f -10/6/6 -9/6/6 -6/6/6
f -6/6/6 -9/6/6 -5/6/6
f -8/6/6 -7/6/6 -4/6/6
f -4/6/6 -7/6/6 -3/6/6
f -5/7/6 -4/7/6 -2/7/6
f -2/7/6 -4/7/6 -1/7/6
v -5.5 4 1
v -4.5 4 1
v 4.5 4 1
v 5.5 4 1
v -5.5 4 -0
v -4.5 4 -0
v 4.5 4 -0
v 5.5 4 -0
v -0.5 4 -1
v 0.5 4 -1
v -0.5 4 -3
v 0.5 4 -3
f -12/6/6 -11/6/6 -8/6/6
f -8/6/6 -11/6/6 -7/6/6
f -10/6/6 -9/6/6 -6/6/6
f -6/6/6 -9/6/6 -5/6/6
f -4/7/6 -3/7/6 -2/7/6
f -2/7/6 -3/7/6 -1/7/6
v -4.5 5 1
v -3.5 5 1
v 3.5 5 1
v 4.5 5 1
v -4.5 5 -0
v -3.5 5 -0
v 3.5 5 -0
v 4.5 5 -0
f -8/6/6 -7/6/6 -4/6/6
f -4/6/6 -7/6/6 -3/6/6
f -6/6/6 -5/6/6 -2/6/6
f -2/6/6 -5/6/6 -1/6/6
v -3.5 6 1
v -2.5 6 1
v 2.5 6 1
v 3.5 6 1
v -3.5 6 -1
v -2.5 6 -1
v -0.5 6 -1
v 0.5 6 -1
v 2.5 6 -1
v 3.5 6 -1
v -0.5 6 -2
v 0.5 6 -2
f -12/6/6 -11/6/6 -8/6/6
f -8/6/6 -11/6/6 -7/6/6
f -10/6/6 -9/6/6 -4/6/6
f -4/6/6 -9/6/6 -3/6/6
f -6/7/6 -5/7/6 -2/7/6
f -2/7/6 -5/7/6 -1/7/6
v -0.5 8 -1
v 0.5 8 -1
v -0.5 8 -2
v 0.5 8 -2
f -4/7/6 -3/7/6 -2/7/6
f -2/7/6 -3/7/6 -1/7/6
v -1.5 10 6
v 1.5 10 6
v -2.5 10 5
v -1.5 10 5
v 1.5 10 5
v 2.5 10 5
v -2.5 10 4
v -1.5 10 4
v 1.5 10 4
v 2.5 10 4
v -2.5 10 -0
v -1.5 10 -0
v 1.5 10 -0
v 2.5 10 -0
v -2.5 10 -1
v -1.5 10 -1
v -0.5 10 -1
v 0.5 10 -1
v 1.5 10 -1
v 2.5 10 -1
v -0.5 10 -2
v 0.5 10 -2
f -22/6/6 -21/6/6 -19/6/6
f -19/6/6 -21/6/6 -18/6/6
f -20/6/6 -19/6/6 -16/6/6
f -16/6/6 -19/6/6 -15/6/6
f -18/6/6 -17/6/6 -14/6/6
f -14/6/6 -17/6/6 -13/6/6
f -12/6/6 -11/6/6 -8/6/6
f -8/6/6 -11/6/6 -7/6/6
f -10/6/6 -9/6/6 -4/6/6
f -4/6/6 -9/6/6 -3/6/6
f -6/7/6 -5/7/6 -2/7/6
f -2/7/6 -5/7/6 -1/7/6
v -1.5 11 5
v 1.5 11 5
v -2.5 11 4
v -1.5 11 4
v 1.5 11 4
v 2.5 11 4
v -2.5 11 3
v -1.5 11 3
v 1.5 11 3
v 2.5 11 3
v -2.5 11 -0
v -1.5 11 -0
v -0.5 11 -0
v 0.5 11 -0
v 1.5 11 -0
v 2.5 11 -0
v -1.5 11 -1
v -0.5 11 -1
v 0.5 11 -1
v 1.5 11 -1
f -20/6/6 -19/6/6 -17/6/6
f -17/6/6 -19/6/6 -16/6/6
f -18/9/6 -17/9/6 -14/9/6
f -17/6/6 -16/6/6 -13/6/6
f -14/9/6 -17/9/6 -13/9/6
f -16/9/6 -15/9/6 -12/9/6
f -13/6/6 -16/6/6 -12/6/6
f -12/9/6 -15/9/6 -11/9/6
f -14/6/6 -13/6/6 -10/6/6
f -10/6/6 -13/6/6 -9/6/6
f -12/6/6 -11/6/6 -6/6/6
f -6/6/6 -11/6/6 -5/6/6
f -9/6/6 -8/6/6 -4/6/6
f -8/7/6 -7/7/6 -3/7/6
f -4/6/6 -8/6/6 -3/6/6
f -7/6/6 -6/6/6 -2/6/6
f -3/7/6 -7/7/6 -2/7/6
f -2/6/6 -6/6/6 -1/6/6
v -1.5 12 3
v 1.5 12 3
v -0.5 12 1
v 0.5 12 1
v -1.5 12 -0
v -0.5 12 -0
v 0.5 12 -0
v 1.5 12 -0
f -8/6/6 -7/6/6 -6/6/6
f -6/6/6 -7/6/6 -5/6/6
f -8/6/6 -6/6/6 -4/6/6
f -6/7/6 -5/7/6 -3/7/6
f -4/6/6 -6/6/6 -3/6/6
f -5/6/6 -7/6/6 -2/6/6
f -3/7/6 -5/7/6 -2/7/6
f -2/6/6 -7/6/6 -1/6/6
